#N canvas 588 23 692 751 10;
#X obj 44 134 dac~ 1 2;
#X obj 44 93 *~ 0.1;
#X obj 44 72 osc~ 440;
#X obj 40 254 loadbang;
#X obj 39 390 s /message;
#X obj 142 390 s /friend;
#X obj 129 76 r fromBela;
#X obj 132 152 print;
#X obj 40 292 metro 10;
#X obj 122 291 adc~ 4;
#X obj 40 334 snapshot~;
#X obj 127 106 tgl 15 0 empty empty empty 17 7 0 10 -262144 -1 -1 0
1;
#X obj 400 80 r min;
#X obj 445 71 r max;
#X obj 221 104 loadbang;
#X msg 221 130 0;
#X msg 251 130 1;
#X obj 221 190 mapper;
#X connect 1 0 0 1;
#X connect 1 0 0 0;
#X connect 2 0 1 0;
#X connect 3 0 8 0;
#X connect 6 0 11 0;
#X connect 8 0 10 0;
#X connect 9 0 10 0;
#X connect 9 0 17 0;
#X connect 10 0 4 0;
#X connect 11 0 8 0;
#X connect 12 0 17 3;
#X connect 13 0 17 4;
#X connect 14 0 15 0;
#X connect 14 0 16 0;
#X connect 15 0 17 1;
#X connect 16 0 17 2;
#X connect 17 0 2 0;
